<svg width="122.88" height="102.56" xmlns="http://www.w3.org/2000/svg" xml:space="preserve" version="1.1">

 <g>
  <title>Layer 1</title>
  <g id="svg_1">
   <path id="svg_2" d="m102.27,58.85c0.23,-0.79 1.06,-1.24 1.85,-1.01c0.79,0.23 1.24,1.06 1.01,1.85c-0.61,2.09 -1.36,4.18 -2.22,6.23c-0.86,2.02 -1.82,3.99 -2.89,5.87c-0.41,0.71 -1.31,0.96 -2.03,0.56c-0.71,-0.41 -0.96,-1.31 -0.56,-2.03c1.02,-1.79 1.94,-3.65 2.74,-5.55c0.8,-1.93 1.51,-3.91 2.1,-5.92l0,0zm-41.25,-52.54c0.83,-0.83 2.18,-0.83 3.02,0c0.83,0.83 0.83,2.18 0,3.02c-3.19,3.2 -1.8,5.81 -0.18,8.84c2.4,4.47 5.14,9.6 0.51,17.62c-0.59,1.02 -1.89,1.36 -2.91,0.78c-1.02,-0.59 -1.36,-1.89 -0.78,-2.91c3.45,-5.97 1.3,-9.98 -0.58,-13.48c-2.41,-4.54 -4.5,-8.44 0.92,-13.87l0,0zm19.46,-5.69c0.83,-0.83 2.18,-0.83 3.02,0c0.83,0.83 0.83,2.18 0,3.02c-3.19,3.19 -1.8,5.81 -0.18,8.84c2.4,4.47 5.14,9.6 0.51,17.62c-0.59,1.02 -1.89,1.36 -2.91,0.78c-1.02,-0.59 -1.36,-1.89 -0.78,-2.91c3.45,-5.97 1.3,-9.98 -0.58,-13.48c-2.42,-4.54 -4.51,-8.44 0.92,-13.87l0,0zm19.46,5.69c0.83,-0.83 2.18,-0.83 3.02,0c0.83,0.83 0.83,2.18 0,3.02c-3.2,3.2 -1.8,5.81 -0.18,8.84c2.4,4.47 5.14,9.6 0.51,17.62c-0.59,1.02 -1.89,1.36 -2.91,0.78c-1.02,-0.59 -1.36,-1.89 -0.78,-2.91c3.45,-5.97 1.3,-9.98 -0.58,-13.48c-2.42,-4.54 -4.51,-8.44 0.92,-13.87l0,0zm-97.73,16.23c-2.34,-2.93 -2.66,-6.07 -1.72,-8.73c0.47,-1.34 1.27,-2.54 2.3,-3.52c1.01,-0.97 2.25,-1.72 3.61,-2.16c2.85,-0.92 6.22,-0.52 9.19,2.01l0.05,0.04l38.1,32.61l67.14,0c1.1,0 1.99,0.89 1.99,1.99c0,0.08 -0.01,0.16 -0.01,0.24c-0.51,12.13 -3.33,22.71 -9.13,31.31c-5.86,8.68 -14.72,15.28 -27.24,19.34c-0.03,0.01 -0.07,0.02 -0.1,0.03l0,6.01c0,0.46 -0.38,0.84 -0.84,0.84l-37.22,0c-0.6,0 -1.09,-0.49 -1.09,-1.09l0,-5.82c-0.12,-0.04 -0.23,-0.1 -0.34,-0.16c-11.49,-5.43 -19.59,-12.58 -24.96,-21.13c-5.39,-8.58 -8,-18.53 -8.47,-29.5c-0.05,-1.09 0.8,-2.02 1.9,-2.07c0.03,0 0.06,0 0.09,0l0,-0.01l10.41,0l-23.37,-19.93c-0.11,-0.09 -0.2,-0.19 -0.29,-0.3l0,0zm2.02,-7.41c-0.5,1.42 -0.3,3.14 0.99,4.82l26.44,22.57l15.67,0l-34.26,-29.32l-0.04,-0.03c-1.8,-1.53 -3.78,-1.79 -5.42,-1.26c-0.79,0.25 -1.5,0.69 -2.09,1.25c-0.57,0.55 -1.02,1.22 -1.29,1.97l0,0zm21.07,57.12c4.94,7.86 12.42,14.47 23.04,19.54l37.25,0c11.45,-3.77 19.53,-9.8 24.85,-17.68c5.07,-7.51 7.69,-16.51 8.36,-27.11l-101.25,0c0.67,9.48 3.09,17.83 7.75,25.25l0,0zm69.38,2.32c0.48,-0.67 1.41,-0.81 2.08,-0.33c0.67,0.48 0.81,1.41 0.33,2.08c-0.62,0.86 -1.27,1.69 -1.94,2.49c-0.65,0.78 -1.34,1.54 -2.06,2.27c-0.58,0.59 -1.52,0.59 -2.1,0.02c-0.59,-0.58 -0.59,-1.52 -0.02,-2.1c0.64,-0.65 1.27,-1.35 1.9,-2.09c0.62,-0.75 1.23,-1.53 1.81,-2.34l0,0z"/>
  </g>
 </g>
</svg>